# xmcd
#
# Track frame offsets:
#	150
#	13146
#	32905
#	52017
#	66147
#
# Disc length: 1168 seconds
#
# Revision: 3
# Processed by: cddbd v1.5.1PL0 Copyright (c) Steve Scherf et al.
# Submitted via: CDmax 1.7.6
#
DISCID=41048e05
DTITLE=Cho-Jin - Woanders
DYEAR=1900
DGENRE=
TTITLE0=Schattenläufer
TTITLE1=A.M
TTITLE2=Grabgeflüster
TTITLE3=Augenlied
TTITLE4=Halbes Kilo
EXTD=Promo 2004
EXTT0=
EXTT1=
EXTT2=
EXTT3=
EXTT4=
PLAYORDER=
